<?xml version="1.0" encoding="UTF-8"?>
<svg width="39px" height="26px" viewBox="0 0 39 26" version="1.1" xmlns="http://www.w3.org/2000/svg">
    <title>logo</title>
    <g id="logo" stroke="none" fill="none" fill-rule="evenodd" stroke-width="1">
        <g id="Cuzeac-Florin" stroke="#FAF9F6">
            <path d="M30,1 L34,1 C36.2091,1 38,2.79086 38,5 C38,7.20914 36.2091,9 34,9 L30,9 L30,1 Z" id="Path" stroke-width="1.25"></path>
            <path d="M22,13 C22,10.7909 23.7909,9 26,9 L30,9 L30,17 L26,17 C23.7909,17 22,15.2091 22,13 Z" id="Path" stroke-width="1.25"></path>
            <path d="M22,5 C22,2.79086 23.7909,1 26,1 L30,1 L30,9 L26,9 C23.7909,9 22,7.20914 22,5 Z" id="Path" stroke-width="1.25"></path>
            <path d="M30,13 C30,10.7909 31.7909,9 34,9 C36.2091,9 38,10.7909 38,13 C38,15.2091 36.2091,17 34,17 C31.7909,17 30,15.2091 30,13 Z" id="Path" stroke-width="1.25"></path>
            <path d="M22,21 C22,18.7909 23.7909,17 26,17 L30,17 L30,21 C30,23.2091 28.2091,25 26,25 C23.7909,25 22,23.2091 22,21 Z" id="Path" stroke-width="1.25"></path>
            <path d="M9,17 L17,17 L17,19 C17,22.3137 14.3137,25 11,25 L9,25 L9,17 Z" id="Path" stroke-width="1.25"></path>
            <path d="M1,7 C1,3.68629 3.68629,1 7,1 L9,1 L9,9 L1,9 L1,7 Z" id="Path" stroke-width="1.25"></path>
            <path d="M9,1 L11,1 C14.3137,1 17,3.68629 17,7 L17,9 L9,9 L9,1 Z" id="Path" stroke-width="1.25"></path>
            <path d="M1,13 C1,10.7909 2.79086,9 5,9 C7.20914,9 9,10.7909 9,13 C9,15.2091 7.20914,17 5,17 C2.79086,17 1,15.2091 1,13 Z" id="Path" stroke-width="1.25"></path>
            <path d="M1,17 L9,17 L9,25 L7,25 C3.68629,25 1,22.3137 1,19 L1,17 Z" id="Path" stroke-width="1.25"></path>
        </g>
    </g>
</svg>
